<svg width="59" height="50" viewBox="0 0 59 50" fill="none" xmlns="http://www.w3.org/2000/svg">
<path d="M0 49.1181C0 45.8542 0 42.5903 0 39.3264C0 36.0625 0.0582837 33.0318 0.174851 30.2342C0.524553 20.4425 2.09821 13.0405 4.89583 8.0281C7.69345 2.89914 12.939 0.334656 20.6324 0.334656L22.9055 8.7275C18.5925 8.96063 15.7949 10.5343 14.5126 13.4485C13.2304 16.3627 12.5893 20.326 12.5893 25.3384H24.1294V49.1181H0ZM34.7954 49.1181C34.7954 45.8542 34.7954 42.5903 34.7954 39.3264C34.7954 36.0625 34.8536 33.0318 34.9702 30.2342C35.3199 20.4425 36.8936 13.0405 39.6912 8.0281C42.4888 2.89914 47.7343 0.334656 55.4278 0.334656L57.7009 8.7275C53.3879 8.96063 50.5902 10.5343 49.308 13.4485C48.0258 16.3627 47.3846 20.326 47.3846 25.3384H58.9248V49.1181H34.7954Z" fill="#7CE3F6"/>
</svg>
